<?xml version="1.0" encoding="UTF-8" standalone="no"?>
<!DOCTYPE svg PUBLIC "-//W3C//DTD SVG 1.1//EN" "http://www.w3.org/Graphics/SVG/1.1/DTD/svg11.dtd">
<svg width="100%" height="100%" viewBox="0 0 128 128" version="1.1" xmlns="http://www.w3.org/2000/svg" xmlns:xlink="http://www.w3.org/1999/xlink" xml:space="preserve" xmlns:serif="http://www.serif.com/" style="fill-rule:evenodd;clip-rule:evenodd;stroke-linejoin:round;stroke-miterlimit:2;">
    <path d="M25,56.499L43,59L58,67L62,72L75,65L88,62L102,62L91,114L48,119L5,105L25,56.499Z" style="fill:white;"/>
    <rect x="81" y="22" width="35" height="12" style="fill:white;"/>
    <path d="M107.5,67.8L103.8,67.7L105,62.5C105.2,61.3 104.5,60 103.2,59.7C99.9,59.1 96.9,58.9 93.7,58.9C84.5,59 73,61.2 62.6,69C58.8,64.1 47.9,54 29.8,54C28.3,54 26.8,54 24.2,54.2C23.3,54.3 22.4,54.9 22,55.8L2.3,103.9C1.6,105.5 2.8,107.3 4.6,107.2L6,107.2L2.4,114.7C1.5,116.4 2.7,118.3 4.5,118C19.7,117 36,117.2 41.7,123C42.4,123.7 42.8,126.5 46.9,127.1C50.3,127.4 51.8,125.5 52.5,124.3C53,123.6 53.8,123.5 54.7,123.2C62.2,121.2 75.7,120.4 95.2,123.5C96.4,123.8 97.8,123.1 98.1,121.7L109.6,70.3C109.9,69.1 108.9,67.8 107.5,67.8ZM45.2,115.7C38.5,109.7 27.3,103.1 10,103.1L7,103.2L25.5,58.7C26.2,58.6 26.9,58.6 27.8,58.6C42.5,58.6 55.9,66 59.5,72.9L45.3,115.7L45.2,115.7ZM90,110.6C86.3,109.5 81.8,108.8 76.1,108.8C68.1,108.8 59,110.5 50.2,116.2L49.4,116.6L63.8,73.8C65.6,71.9 75.6,63.2 93.8,63.1C95.9,63.1 98.1,63.2 100.3,63.5L90,110.3L90,110.6Z" style="fill:rgb(37,55,68);fill-rule:nonzero;"/>
    <path d="M69.1,80.9C74.7,78.2 80.4,76.2 89.9,75.9C91.8,75.9 92,72.9 89.9,72.9C81.4,73.1 74.9,75 67.9,78.5C66.3,79.4 67.4,81.8 69.1,80.9Z" style="fill:rgb(37,55,68);fill-rule:nonzero;"/>
    <path d="M66.1,91.7C71.7,89.2 77.6,86.6 87.3,86.1C89.6,86.2 89.7,82.6 87.3,82.7C80.1,83 73.1,84.4 65.1,88.8C63.4,89.9 64.4,92.4 66.1,91.7Z" style="fill:rgb(37,55,68);fill-rule:nonzero;"/>
    <path d="M63.2,102C68.8,99.5 74.4,97.3 84.4,97C86.8,97.1 86.9,93.8 84.4,93.9C77.1,94 69.6,95.5 61.9,99.5C60.4,100.5 61.3,102.9 63.2,102Z" style="fill:rgb(37,55,68);fill-rule:nonzero;"/>
    <path d="M98.4,1.3C83,1.3 69.1,12.3 69.1,26C69.1,33 72.1,38.9 77.9,44.5C78.1,44.7 77.9,45.5 75.7,54.6C75.5,56.1 77.1,57 78.3,56.2L88.7,50.7L88.9,50.6C91.3,51.3 94.4,52.1 98.4,52.1C113.4,52.1 126.1,41.6 126.1,26.4C126.1,13.4 114.6,1.3 98.4,1.3ZM85.7,30.2C83.9,30.2 82.1,28.7 82.1,26.7C82.1,25 83.7,23.3 85.6,23.3C87.4,23.3 89.1,24.9 89.1,26.7C89.2,28.6 87.6,30.2 85.7,30.2ZM98.1,30.2C96.4,30.2 94.6,28.7 94.6,26.7C94.6,24.9 96.2,23.3 98.1,23.3C99.9,23.3 101.6,24.9 101.6,26.7C101.7,28.6 100,30.2 98.1,30.2ZM110.6,30.2C108.8,30.4 107.1,28.7 107.1,26.7C107.1,25 108.7,23.3 110.6,23.3C112.4,23.3 114.1,24.9 114.1,26.7C114.2,28.6 112.6,30.2 110.6,30.2Z" style="fill:rgb(37,55,68);fill-rule:nonzero;"/>
</svg>
